PathFileType	4	(X/Y/Z)	/Users/mathieubourgeois/Desktop/Analyse/Traitement/Sujet_06/Transformed_Static_Sujet_06_Tpose.trc
DataRate	CameraRate	NumFrames	NumMarkers	Units	OrigDataRate	OrigDataStartFrame	OrigNumFrames
120.000000	120.000000	4	36	mm	120.000000	189	252
Frame#	Time	RFHD			RANE			STRN			LANI			LKNE			T10			RHUM			RWRB			C7			LFWT			LTOE			RTOE			LWRA			LBWT			RBWT			RFWT			LKNI			RKNI			RKNE			LANE			RANI			LHEE			RHEE			LHUM			LRAD			RRAD			RWRA			LWRB			LFHD			LBHD			RBHD			RSHO			LSHO			CLAV			LCAR			RCAR			
		X1	Y1	Z1	X2	Y2	Z2	X3	Y3	Z3	X4	Y4	Z4	X5	Y5	Z5	X6	Y6	Z6	X7	Y7	Z7	X8	Y8	Z8	X9	Y9	Z9	X10	Y10	Z10	X11	Y11	Z11	X12	Y12	Z12	X13	Y13	Z13	X14	Y14	Z14	X15	Y15	Z15	X16	Y16	Z16	X17	Y17	Z17	X18	Y18	Z18	X19	Y19	Z19	X20	Y20	Z20	X21	Y21	Z21	X22	Y22	Z22	X23	Y23	Z23	X24	Y24	Z24	X25	Y25	Z25	X26	Y26	Z26	X27	Y27	Z27	X28	Y28	Z28	X29	Y29	Z29	X30	Y30	Z30	X31	Y31	Z31	X32	Y32	Z32	X33	Y33	Z33	X34	Y34	Z34	X35	Y35	Z35	X36	Y36	Z36	

190	1.575	-880.2393188476562	1638.47412109375	325.7659912109373	-958.6307373046875	75.54449462890626	216.4073333740233	-809.9718017578125	1233.169677734375	361.4669189453123	-763.8198852539062	77.66100311279298	223.5251007080077	-673.1085815429688	481.5331420898438	239.4982757568358	-815.6696166992188	1211.357299804688	160.0128936767576	-1259.003540039062	1408.649169921875	199.3763275146482	-1483.537719726562	1482.196655273438	209.134094238281	-813.7645263671875	1453.140747070312	204.7364501953123	-699.407958984375	984.2911987304688	334.574005126953	-697.461181640625	37.44799041748049	392.5101013183593	-918.389404296875	38.55261230468752	399.6621093749999	-117.7728881835938	1343.5458984375	129.2320098876952	-759.4048461914062	1011.0810546875	179.9756622314452	-866.1759643554688	1012.407958984375	186.8612823486326	-913.4669189453125	987.75244140625	343.4285278320311	-767.4545288085938	435.8710632324219	233.7600555419921	-866.1091918945312	441.7983093261719	221.4294281005858	-960.8703002929688	492.4375	233.1944122314452	-683.443359375	69.51242065429689	202.2872161865234	-877.7507934570312	83.48968505859376	226.9436492919921	-724.5005493164062	52.09230041503907	154.3942718505859	-922.8245239257812	54.02153778076173	162.4641113281249	-366.8249816894531	1359.302856445312	158.3303985595702	-359.9945068359375	1315.109741210938	204.003952026367	-1257.893798828125	1370.603759765625	253.4577331542966	-1496.78466796875	1426.649658203125	188.401672363281	-122.0705947875977	1404.175415039062	127.0863418579101	-734.4706420898438	1642.0244140625	323.941223144531	-735.8269653320312	1578.994018554688	186.3619689941405	-864.5591430664062	1580.963745117188	171.4427947998045	-952.2125244140625	1447.845581054688	237.5082244873045	-662.973876953125	1434.563110351562	226.0615997314451	-807.3658447265625	1385.71044921875	322.9277038574217	-35.14856338500978	1383.962280273438	107.6258392333984	-1590.661987304688	1467.29345703125	167.7585601806638	
191	1.583333333333333	-880.2049560546875	1638.462890625	325.8658447265623	-958.6397094726562	75.54370117187501	216.4059906005858	-809.9561767578125	1233.159301757812	361.5437622070311	-763.8314819335938	77.63724517822267	223.5266876220702	-673.1130981445312	481.525390625	239.5282135009764	-815.6361694335938	1211.349609375	160.1062774658201	-1258.993408203125	1408.686157226562	199.5066070556638	-1483.524658203125	1482.2373046875	209.2908477783201	-813.7576904296875	1453.129150390625	204.8318023681639	-699.4136962890625	984.3032836914062	334.6835632324217	-697.4549560546875	37.44794845581057	392.5158386230468	-918.3859252929688	38.54518127441408	399.6579284667968	-117.7732543945313	1343.530639648438	129.3388519287108	-759.39208984375	1011.088134765625	180.056686401367	-866.1686401367188	1012.41259765625	186.9560546874998	-913.4619140625	987.732177734375	343.4820556640623	-767.4605712890625	435.8683166503906	233.8241882324218	-866.1127319335938	441.7992858886719	221.4687347412108	-960.8551635742188	492.4451293945312	233.2166137695311	-683.2837524414062	68.79690551757814	202.4489288330077	-877.7509155273438	83.48962402343751	226.9433441162108	-724.5000610351562	52.08883285522462	154.4011077880859	-922.8219604492188	54.02128982543946	162.4622497558593	-366.7995910644531	1359.264526367188	158.4162445068358	-359.9936828613281	1315.09765625	204.0854644775389	-1257.8857421875	1370.640014648438	253.5673675537107	-1496.760375976562	1426.702392578125	188.521057128906	-122.057846069336	1404.16064453125	127.1927185058593	-734.4436645507812	1642.011962890625	324.0485839843748	-735.8045043945312	1578.988037109375	186.4578399658201	-864.5399169921875	1580.960327148438	171.541793823242	-952.2047729492188	1447.860717773438	237.6076507568357	-662.9668579101562	1434.547485351562	226.1563262939451	-807.3458251953125	1385.694458007812	323.0288085937498	-35.13166427612306	1383.9609375	107.7041549682616	-1590.640869140625	1467.3681640625	167.9026336669919	
192	1.591666666666667	-880.1718139648438	1638.469482421875	325.9664916992185	-958.6336669921875	75.53489685058595	216.3911590576171	-809.9400634765625	1233.139282226562	361.6379394531248	-763.82275390625	77.63754272460939	223.544708251953	-673.1100463867188	481.5148315429688	239.577911376953	-815.6322631835938	1211.347778320312	160.1846771240232	-1258.985473632812	1408.703979492188	199.6336975097654	-1483.510375976562	1482.27294921875	209.4440765380857	-813.738525390625	1453.125	204.9255371093748	-699.4087524414062	984.2841186523438	334.764923095703	-697.4620361328125	37.45006561279299	392.5182800292968	-918.383544921875	38.55284881591799	399.6544799804686	-117.7602844238281	1343.517822265625	129.4176788330077	-759.392333984375	1011.084655761719	180.1261291503905	-866.1401977539062	1012.399780273438	187.0058288574217	-913.458251953125	987.7235717773438	343.560089111328	-767.4656982421875	435.8636169433594	233.8518829345702	-866.1021728515625	441.786376953125	221.4695587158202	-960.8597412109375	492.44287109375	233.2559356689452	-683.287109375	68.78467559814455	202.4513397216796	-877.7457885742188	83.48975372314455	226.9507293701171	-724.50830078125	52.08136367797852	154.4055786132812	-922.8242797851562	54.03330612182618	162.4477081298827	-366.8067016601562	1359.255737304688	158.5037536621092	-359.9877014160156	1315.083618164062	204.1742095947264	-1257.875610351562	1370.635620117188	253.6382141113279	-1496.752075195312	1426.758178710938	188.6415863037107	-122.0467071533203	1404.133911132812	127.2733840942382	-734.4060668945312	1641.992309570312	324.1346130371091	-735.783935546875	1578.983764648438	186.5493164062498	-864.524169921875	1580.977416992188	171.6436157226561	-952.1897583007812	1447.8544921875	237.6991271972654	-662.9483032226562	1434.547241210938	226.2345275878905	-807.3214111328125	1385.692504882812	323.1401367187498	-35.1203079223633	1383.938354492188	107.8071823120116	-1590.637573242188	1467.420288085938	168.0442047119138	
193	1.6	-880.143798828125	1638.452270507812	326.0520324707029	-958.6255493164062	75.54373168945314	216.3925170898436	-809.9387817382812	1233.15234375	361.7339477539061	-763.8201904296875	77.64446258544923	223.5472259521484	-673.1051025390625	481.5195007324219	239.6157989501952	-815.61376953125	1211.348876953125	160.2601318359373	-1258.981201171875	1408.7060546875	199.7508239746091	-1483.50146484375	1482.305053710938	209.5857086181638	-813.7322387695312	1453.134643554688	205.0213775634764	-699.4141845703125	984.2839965820312	334.8352050781248	-697.4622802734375	37.44987106323244	392.5067749023436	-918.3858642578125	38.54843902587893	399.6601562499999	-117.7526321411133	1343.501831054688	129.492462158203	-759.3943481445312	1011.089782714844	180.2160644531249	-866.1316528320312	1012.3896484375	187.0850219726561	-913.4417724609375	987.7179565429688	343.6219787597655	-767.4548950195312	435.8630065917969	233.9094848632811	-866.1002807617188	441.7966003417969	221.5110015869139	-960.85107421875	492.4522705078125	233.2833862304686	-683.2839965820312	68.77818298339845	202.4589691162109	-877.7431640625	83.4993133544922	226.9443054199218	-724.506103515625	52.08790969848634	154.4064025878905	-922.8159790039062	54.03073883056641	162.4532318115233	-366.7843933105469	1359.247314453125	158.5721130371092	-359.9804382324219	1315.0771484375	204.2412109374999	-1257.867919921875	1370.65576171875	253.7517089843748	-1496.739013671875	1426.800659179688	188.7723693847654	-122.0340270996094	1404.118286132812	127.3523483276366	-734.3839111328125	1641.983764648438	324.2391967773435	-735.7770385742188	1578.982788085938	186.6459960937498	-864.4952392578125	1580.973754882812	171.7523803710936	-952.1705322265625	1447.854614257812	237.7840881347654	-662.9393310546875	1434.539794921875	226.3211975097655	-807.3140869140625	1385.685180664062	323.2568054199217	-35.09182739257814	1383.919799804688	107.9122161865234	-1590.623779296875	1467.487915039062	168.1990203857419	
